<mxfile host="app.diagrams.net" modified="2023-05-13T13:41:05.262Z" agent="Mozilla/5.0 (Windows NT 10.0; Win64; x64) AppleWebKit/537.36 (KHTML, like Gecko) Chrome/87.0.4280.66 Safari/537.36" version="21.1.4" etag="s5oa1T5GcqSZGFEf8GQ0" type="github">
  <diagram name="第 1 页" id="XPm45WM1e0ClEhCGCHXk">
    <mxGraphModel>
      <root>
        <mxCell id="0" />
        <mxCell id="1" parent="0" />
      </root>
    </mxGraphModel>
  </diagram>
</mxfile>
